<mxfile host="app.diagrams.net" modified="2023-12-19T07:21:23.105Z" agent="Mozilla/5.0 (Windows NT 10.0; Win64; x64) AppleWebKit/537.36 (KHTML, like Gecko) Chrome/120.0.0.0 Safari/537.36" version="22.1.11" etag="6mT4hjl-WhV2MR2hwGaK" type="github">
  <diagram name="Page-1" id="F6QOBUvzWX3oa8cxP4Jo">
    <mxGraphModel>
      <root>
        <mxCell id="0" />
        <mxCell id="1" parent="0" />
      </root>
    </mxGraphModel>
  </diagram>
</mxfile>
